<svg width="152" height="16" viewBox="0 0 152 16" fill="none" xmlns="http://www.w3.org/2000/svg">
<path d="M0.254883 0.338624H10.3346C12.6865 0.338624 14.2824 0.931212 15.2905 2.03174C16.2144 2.8783 16.6344 4.06349 16.6344 5.5873V5.67196C16.6344 8.04232 15.3744 9.56612 13.5265 10.328L17.1383 15.6613H12.2665L9.24257 11.0053H9.15858H7.39466V15.6613H3.19479V2.96296L0.254883 0.338624ZM10.1666 7.61904C11.5945 7.61904 12.4345 6.94179 12.4345 5.84127V5.75661C12.4345 4.57142 11.5945 3.97883 10.1666 3.97883H7.39466V7.61904H10.1666ZM17.6423 7.95767C17.6423 3.55556 21.1702 0 25.7901 0C30.4939 0 33.9379 3.4709 33.9379 7.87301V7.95767C33.9379 12.3598 30.4099 15.9153 25.7901 15.9153C21.1702 15.8307 17.6423 12.3598 17.6423 7.95767ZM29.654 7.95767C29.654 5.75661 28.0581 3.80952 25.7901 3.80952C23.5222 3.80952 21.9263 5.67196 21.9263 7.87301V7.95767C21.9263 10.1587 23.5222 12.1058 25.7901 12.1058C28.142 12.0211 29.654 10.1587 29.654 7.95767ZM35.1138 7.95767C35.1138 3.4709 38.4737 0 43.0935 0C46.2015 0 48.1334 1.26984 49.4774 3.21693L46.2855 5.67196C45.4455 4.57142 44.4375 3.89418 43.0096 3.89418C40.9096 3.89418 39.3977 5.67196 39.3977 7.95767V8.04232C39.3977 10.328 40.9096 12.1058 43.0096 12.1058C44.6056 12.1058 45.5295 11.3439 46.4534 10.2433L49.6454 12.5291C48.2174 14.4762 46.2855 16 42.9256 16C38.5578 15.8307 35.1138 12.5291 35.1138 7.95767ZM51.1573 0.338624H55.3572V6.51851L60.5651 0.338624H65.5209L59.809 6.85714L65.6889 15.5767H60.6491L56.8692 9.90477L55.3572 11.5979V15.5767H51.1573V0.338624ZM67.0328 0.338624H79.2125V3.89418H71.2327V6.17989H78.4565V9.56612H71.2327V11.9365H79.2965V15.5767H67.0328V0.338624ZM84.9247 3.97883H80.3884V0.338624H93.6598V3.97883H89.124V15.5767H84.9247V3.97883ZM95.2561 13.291L96.0116 12.4444C97.6922 13.9682 99.2041 14.7301 101.388 14.7301C103.656 14.7301 105.168 13.4603 105.168 11.6826V11.5979C105.168 9.98944 104.328 9.05822 100.884 8.38095C97.2723 7.61904 95.7604 6.43386 95.7604 4.06349V4.14815C95.7604 1.86243 97.7757 0.169312 100.632 0.169312C102.816 0.169312 104.243 0.761904 105.84 2.03174L105.168 2.96296C103.74 1.69312 102.311 1.26984 100.632 1.26984C98.4478 1.26984 96.9358 2.53968 96.9358 4.14815V4.2328C96.9358 5.84127 97.7757 6.85713 101.304 7.53439C104.832 8.21163 106.26 9.48145 106.26 11.7672V11.8519C106.26 14.3069 104.16 16 101.219 16C98.8677 15.746 97.0202 14.9841 95.2561 13.291ZM109.955 0.338624H111.047V15.5767H109.955V0.338624ZM114.828 7.95767C114.828 3.80952 117.767 0.0846557 122.303 0.0846557C124.739 0.0846557 126.335 0.846557 127.847 2.1164L127.091 2.96296C125.915 1.94709 124.487 1.10053 122.22 1.10053C118.524 1.10053 116.003 4.2328 116.003 7.87301V7.95767C116.003 11.8519 118.439 14.8148 122.471 14.8148C124.403 14.8148 126.167 14.0529 127.259 13.037V8.6349H122.22V7.61904H128.351V13.545C127.007 14.7301 124.907 15.8307 122.387 15.8307C117.599 15.8307 114.828 12.2751 114.828 7.95767ZM132.131 0.338624H133.223L143.554 13.545V0.338624H144.646V15.5767H143.807L133.223 2.03174V15.5767H132.131V0.338624Z" fill="#3E3F4C"/>
<path d="M149.405 0.313385C149.844 0.313385 150.241 0.41559 150.595 0.620001C150.954 0.82441 151.236 1.10659 151.44 1.46653C151.643 1.82202 151.745 2.21751 151.745 2.65299C151.745 3.08848 151.641 3.4884 151.433 3.85279C151.225 4.21273 150.94 4.49713 150.582 4.70598C150.223 4.91483 149.827 5.01926 149.391 5.01926C148.957 5.01926 148.561 4.91483 148.202 4.70598C147.847 4.49713 147.566 4.21273 147.358 3.85279C147.153 3.49285 147.052 3.09736 147.052 2.66632C147.052 2.23528 147.153 1.8398 147.358 1.47986C147.566 1.11992 147.85 0.83552 148.208 0.626666C148.568 0.417812 148.966 0.313385 149.405 0.313385ZM149.391 4.71931C149.773 4.71931 150.118 4.62822 150.429 4.44603C150.739 4.26383 150.983 4.01498 151.16 3.69948C151.342 3.38398 151.433 3.03515 151.433 2.65299C151.433 2.27084 151.344 1.92423 151.166 1.61316C150.994 1.30211 150.752 1.0577 150.442 0.879958C150.136 0.702208 149.79 0.613335 149.405 0.613335C149.024 0.613335 148.676 0.70443 148.362 0.88662C148.051 1.06882 147.808 1.31766 147.63 1.63317C147.453 1.94422 147.364 2.28861 147.364 2.66632C147.364 3.04404 147.453 3.39064 147.63 3.70615C147.808 4.01721 148.051 4.26383 148.362 4.44603C148.671 4.62822 149.015 4.71931 149.391 4.71931ZM150.595 2.23973C150.595 2.43969 150.547 2.61077 150.449 2.75297C150.351 2.89517 150.214 2.99738 150.036 3.05959L150.642 3.99943H150.183L149.631 3.14624H148.907V3.99943H148.455V1.33321H149.518C149.85 1.33321 150.112 1.41542 150.302 1.57984C150.498 1.74426 150.595 1.96422 150.595 2.23973ZM149.485 2.77297C149.698 2.77297 149.862 2.72631 149.977 2.63299C150.096 2.53968 150.156 2.40859 150.156 2.23973C150.156 2.07087 150.096 1.942 149.977 1.85312C149.862 1.75981 149.698 1.71315 149.485 1.71315H148.9V2.77297H149.485Z" fill="#3E3F4C"/>
</svg>
